<svg width="600" height="400" viewBox="0 0 600 400" fill="none" xmlns="http://www.w3.org/2000/svg">
  <!-- Background -->
  <rect width="600" height="400" fill="#E6F2FF" rx="20" />
  
  <!-- Bookshelf -->
  <rect x="100" y="100" width="400" height="250" fill="#A0C4FF" rx="10" />
  <rect x="120" y="120" width="360" height="210" fill="#FFFFFF" rx="5" />
  
  <!-- Shelves -->
  <rect x="120" y="180" width="360" height="5" fill="#A0C4FF" />
  <rect x="120" y="240" width="360" height="5" fill="#A0C4FF" />
  <rect x="120" y="300" width="360" height="5" fill="#A0C4FF" />
  
  <!-- Books on top shelf -->
  <rect x="130" y="130" width="30" height="50" fill="#FF9AA2" rx="2" />
  <rect x="165" y="130" width="25" height="50" fill="#FFB7B2" rx="2" />
  <rect x="195" y="130" width="35" height="50" fill="#FFDAC1" rx="2" />
  <rect x="235" y="130" width="20" height="50" fill="#E2F0CB" rx="2" />
  <rect x="260" y="130" width="30" height="50" fill="#B5EAD7" rx="2" />
  <rect x="295" y="130" width="25" height="50" fill="#C7CEEA" rx="2" />
  <rect x="325" y="130" width="30" height="50" fill="#FF9AA2" rx="2" />
  <rect x="360" y="130" width="25" height="50" fill="#FFB7B2" rx="2" />
  <rect x="390" y="130" width="35" height="50" fill="#FFDAC1" rx="2" />
  <rect x="430" y="130" width="20" height="50" fill="#E2F0CB" rx="2" />
  
  <!-- Books on middle shelf -->
  <rect x="130" y="185" width="25" height="55" fill="#B5EAD7" rx="2" />
  <rect x="160" y="185" width="30" height="55" fill="#C7CEEA" rx="2" />
  <rect x="195" y="185" width="20" height="55" fill="#FF9AA2" rx="2" />
  <rect x="220" y="185" width="35" height="55" fill="#FFB7B2" rx="2" />
  <rect x="260" y="185" width="25" height="55" fill="#FFDAC1" rx="2" />
  <rect x="290" y="185" width="30" height="55" fill="#E2F0CB" rx="2" />
  <rect x="325" y="185" width="25" height="55" fill="#B5EAD7" rx="2" />
  <rect x="355" y="185" width="30" height="55" fill="#C7CEEA" rx="2" />
  <rect x="390" y="185" width="20" height="55" fill="#FF9AA2" rx="2" />
  <rect x="415" y="185" width="35" height="55" fill="#FFB7B2" rx="2" />
  
  <!-- Books on bottom shelf -->
  <rect x="130" y="245" width="35" height="55" fill="#FFDAC1" rx="2" />
  <rect x="170" y="245" width="25" height="55" fill="#E2F0CB" rx="2" />
  <rect x="200" y="245" width="30" height="55" fill="#B5EAD7" rx="2" />
  <rect x="235" y="245" width="25" height="55" fill="#C7CEEA" rx="2" />
  <rect x="265" y="245" width="30" height="55" fill="#FF9AA2" rx="2" />
  <rect x="300" y="245" width="25" height="55" fill="#FFB7B2" rx="2" />
  <rect x="330" y="245" width="35" height="55" fill="#FFDAC1" rx="2" />
  <rect x="370" y="245" width="25" height="55" fill="#E2F0CB" rx="2" />
  <rect x="400" y="245" width="30" height="55" fill="#B5EAD7" rx="2" />
  <rect x="435" y="245" width="25" height="55" fill="#C7CEEA" rx="2" />
  
  <!-- Laptop/Device -->
  <rect x="200" y="320" width="200" height="10" fill="#4361EE" rx="2" />
  <rect x="220" y="305" width="160" height="15" fill="#4361EE" rx="2" />
  <rect x="230" y="250" width="140" height="55" fill="#4895EF" rx="5" />
  <rect x="240" y="260" width="120" height="35" fill="#FFFFFF" rx="2" />
  
  <!-- Data visualization on screen -->
  <line x1="250" y1="280" x2="270" y2="270" stroke="#4361EE" stroke-width="2" />
  <line x1="270" y1="270" x2="290" y2="285" stroke="#4361EE" stroke-width="2" />
  <line x1="290" y1="285" x2="310" y2="265" stroke="#4361EE" stroke-width="2" />
  <line x1="310" y1="265" x2="330" y2="275" stroke="#4361EE" stroke-width="2" />
  <line x1="330" y1="275" x2="350" y2="265" stroke="#4361EE" stroke-width="2" />
  
  <!-- Flying papers/documents -->
  <rect x="450" y="150" width="40" height="30" fill="#FFFFFF" transform="rotate(15 450 150)" rx="2" stroke="#4361EE" />
  <rect x="480" y="180" width="40" height="30" fill="#FFFFFF" transform="rotate(30 480 180)" rx="2" stroke="#4361EE" />
  <rect x="500" y="220" width="40" height="30" fill="#FFFFFF" transform="rotate(45 500 220)" rx="2" stroke="#4361EE" />
  <rect x="510" y="260" width="40" height="30" fill="#FFFFFF" transform="rotate(60 510 260)" rx="2" stroke="#4361EE" />
</svg> 